<svg width="26" height="23" viewBox="0 0 26 23" fill="none" xmlns="http://www.w3.org/2000/svg">
<path fill-rule="evenodd" clip-rule="evenodd" d="M15.6469 1.91675C19.1802 1.91675 21.2073 3.52579 21.2073 6.32892V20.2592C21.2073 20.8438 20.8802 21.37 20.3302 21.6642C19.7823 21.9593 19.1219 21.9651 18.5677 21.6776L12.3594 18.4509L6.09376 21.6843C5.82293 21.8242 5.52605 21.8951 5.22814 21.8951C4.92084 21.8951 4.61355 21.8194 4.33439 21.668C3.78543 21.3738 3.45834 20.8477 3.45834 20.264V6.15354C3.45834 3.46062 5.48647 1.91675 9.02293 1.91675H15.6469ZM15.6469 3.35425H9.02293C6.36772 3.35425 5.02084 4.29533 5.02084 6.15354V20.264C5.02084 20.3541 5.07709 20.403 5.12397 20.4279C5.17084 20.4547 5.2448 20.4739 5.33022 20.4298L11.9781 16.999C12.2156 16.8773 12.5063 16.8763 12.7448 17L19.3354 20.425C19.4219 20.471 19.4958 20.45 19.5427 20.4241C19.5896 20.3982 19.6448 20.3493 19.6448 20.2592L19.6444 6.21971C19.6365 5.3949 19.4631 3.35425 15.6469 3.35425ZM16.104 8.36489C16.5352 8.36489 16.8852 8.68689 16.8852 9.08364C16.8852 9.48039 16.5352 9.80239 16.104 9.80239H8.48105C8.0498 9.80239 7.6998 9.48039 7.6998 9.08364C7.6998 8.68689 8.0498 8.36489 8.48105 8.36489H16.104Z" fill="black"/>
</svg>
