<svg width="26" height="26" viewBox="0 0 26 26" fill="none" xmlns="http://www.w3.org/2000/svg">
<g clip-path="url(#clip0_12_38)">
<path d="M7.66835 25.5133C7.15573 25.1722 6.70141 24.7508 6.32285 24.2653C5.90643 23.7641 5.52061 23.2383 5.16747 22.6906C4.33879 21.4766 3.68891 20.1498 3.23779 18.7508C2.69585 17.1258 2.43341 15.5683 2.43341 14.0448C2.43341 12.3435 2.80147 10.8582 3.52135 9.61021C4.05498 8.63475 4.83956 7.8196 5.79391 7.24908C6.71879 6.67462 7.78148 6.36025 8.87003 6.33908C9.2511 6.33908 9.66141 6.39433 10.0969 6.49996C10.4097 6.58852 10.7908 6.72827 11.2563 6.90215C11.8487 7.13046 12.1745 7.27021 12.285 7.30433C12.6319 7.43108 12.9236 7.48633 13.1527 7.48633C13.3266 7.48633 13.572 7.43108 13.8507 7.34658C14.0075 7.29133 14.3032 7.19383 14.7265 7.01265C15.1458 6.8599 15.4757 6.72908 15.7381 6.63158C16.1403 6.51296 16.5295 6.40327 16.8764 6.34802C17.2877 6.28318 17.7051 6.266 18.1203 6.29683C18.8399 6.34386 19.5487 6.49635 20.2239 6.7494C21.3281 7.19383 22.221 7.88771 22.8857 8.87408C22.6047 9.04722 22.3411 9.24693 22.0983 9.47046C21.5699 9.93893 21.1198 10.4889 20.765 11.0995C20.3013 11.934 20.0609 12.8741 20.0671 13.8287C20.0842 15.0011 20.3848 16.0338 20.9771 16.9268C21.4126 17.5886 21.9785 18.1545 22.6403 18.59C22.9791 18.8183 23.2708 18.9751 23.5503 19.0807C23.4195 19.487 23.2797 19.8802 23.1148 20.2702C22.7407 21.1448 22.2873 21.9833 21.7603 22.7751C21.2907 23.4568 20.9227 23.9646 20.6432 24.3026C20.2077 24.8186 19.7884 25.2126 19.3651 25.4873C18.8995 25.796 18.3495 25.961 17.7905 25.961C17.4119 25.9755 17.0334 25.9297 16.6692 25.8253C16.3564 25.7196 16.0468 25.6051 15.7422 25.4743C15.4254 25.3288 15.0988 25.2058 14.7647 25.1062C13.939 24.8941 13.0732 24.8927 12.2468 25.1021C11.908 25.1996 11.5822 25.3134 11.2604 25.4531C10.8078 25.6433 10.5072 25.7708 10.3333 25.8253C9.98641 25.9268 9.62647 25.9902 9.26247 26.0113C8.69941 26.0113 8.17453 25.8505 7.65453 25.5246L7.66835 25.5133ZM15.0946 5.51358C14.3585 5.88165 13.6557 6.03846 12.9577 5.98727C12.848 5.28446 12.9577 4.5654 13.2494 3.77808C13.4977 3.11107 13.8647 2.49448 14.3325 1.95808C14.8265 1.39341 15.4259 0.930576 16.0972 0.59552C16.8122 0.227458 17.4939 0.0283955 18.1455 -0.000854492C18.23 0.735271 18.1455 1.45921 17.875 2.24165C17.6246 2.93331 17.2583 3.57734 16.7919 4.14615C16.3158 4.71159 15.7316 5.17622 15.0735 5.51277L15.0946 5.51358Z" fill="black"/>
</g>
<defs>
<clipPath id="clip0_12_38">
<rect width="26" height="26" fill="white"/>
</clipPath>
</defs>
</svg>
