<svg width="210" height="66" viewBox="0 0 210 66" fill="none" xmlns="http://www.w3.org/2000/svg">
<path d="M63.056 50V49.52L63.92 49.184C64.56 48.928 64.992 48.608 65.216 48.224C65.472 47.84 65.6 47.328 65.6 46.688V21.632C65.6 20.96 65.472 20.432 65.216 20.048C64.992 19.664 64.56 19.36 63.92 19.136L63.056 18.8V18.32H76.832C80.736 18.32 83.552 19.04 85.28 20.48C87.008 21.888 87.872 23.68 87.872 25.856C87.872 27.488 87.232 28.976 85.952 30.32C84.704 31.632 82.544 32.56 79.472 33.104C82.992 33.488 85.568 34.416 87.2 35.888C88.832 37.328 89.648 39.088 89.648 41.168C89.648 42.192 89.424 43.232 88.976 44.288C88.528 45.312 87.76 46.256 86.672 47.12C85.616 47.984 84.16 48.688 82.304 49.232C80.448 49.744 78.096 50 75.248 50H63.056ZM72.704 33.056H74.768C76.912 33.056 78.448 32.56 79.376 31.568C80.336 30.576 80.816 28.848 80.816 26.384C80.816 23.824 80.384 22 79.52 20.912C78.656 19.824 77.248 19.28 75.296 19.28H72.704V33.056ZM72.704 49.04H75.104C77.504 49.04 79.28 48.4 80.432 47.12C81.616 45.84 82.208 43.84 82.208 41.12C82.208 38.56 81.648 36.736 80.528 35.648C79.408 34.56 77.568 34.016 75.008 34.016H72.704V49.04ZM104.073 50.72C101.641 50.72 99.5288 50.224 97.7368 49.232C95.9448 48.208 94.5528 46.768 93.5608 44.912C92.6008 43.056 92.1208 40.88 92.1208 38.384C92.1208 35.888 92.6328 33.728 93.6568 31.904C94.7128 30.08 96.1368 28.672 97.9288 27.68C99.7528 26.688 101.801 26.192 104.073 26.192C106.345 26.192 108.377 26.688 110.169 27.68C111.961 28.64 113.369 30.032 114.393 31.856C115.449 33.68 115.977 35.856 115.977 38.384C115.977 40.912 115.481 43.104 114.489 44.96C113.529 46.784 112.153 48.208 110.361 49.232C108.601 50.224 106.505 50.72 104.073 50.72ZM104.073 49.76C105.193 49.76 106.089 49.44 106.761 48.8C107.433 48.16 107.913 47.024 108.201 45.392C108.521 43.76 108.681 41.456 108.681 38.48C108.681 35.472 108.521 33.152 108.201 31.52C107.913 29.888 107.433 28.752 106.761 28.112C106.089 27.472 105.193 27.152 104.073 27.152C102.953 27.152 102.041 27.472 101.337 28.112C100.665 28.752 100.169 29.888 99.8488 31.52C99.5608 33.152 99.4168 35.472 99.4168 38.48C99.4168 41.456 99.5608 43.76 99.8488 45.392C100.169 47.024 100.665 48.16 101.337 48.8C102.041 49.44 102.953 49.76 104.073 49.76ZM130.51 50.72C128.078 50.72 125.966 50.224 124.174 49.232C122.382 48.208 120.99 46.768 119.998 44.912C119.038 43.056 118.558 40.88 118.558 38.384C118.558 35.888 119.07 33.728 120.094 31.904C121.15 30.08 122.574 28.672 124.366 27.68C126.19 26.688 128.238 26.192 130.51 26.192C132.782 26.192 134.814 26.688 136.606 27.68C138.398 28.64 139.806 30.032 140.83 31.856C141.886 33.68 142.414 35.856 142.414 38.384C142.414 40.912 141.918 43.104 140.926 44.96C139.966 46.784 138.59 48.208 136.798 49.232C135.038 50.224 132.942 50.72 130.51 50.72ZM130.51 49.76C131.63 49.76 132.526 49.44 133.198 48.8C133.87 48.16 134.35 47.024 134.638 45.392C134.958 43.76 135.118 41.456 135.118 38.48C135.118 35.472 134.958 33.152 134.638 31.52C134.35 29.888 133.87 28.752 133.198 28.112C132.526 27.472 131.63 27.152 130.51 27.152C129.39 27.152 128.478 27.472 127.774 28.112C127.102 28.752 126.606 29.888 126.286 31.52C125.998 33.152 125.854 35.472 125.854 38.48C125.854 41.456 125.998 43.76 126.286 45.392C126.606 47.024 127.102 48.16 127.774 48.8C128.478 49.44 129.39 49.76 130.51 49.76ZM144.431 50V49.52L145.151 49.28C146.239 48.928 146.783 48.144 146.783 46.928V21.248C146.783 20.608 146.655 20.128 146.399 19.808C146.143 19.488 145.695 19.232 145.055 19.04L144.431 18.896V18.416L153.215 16.352L153.791 16.784L153.647 23.504V46.928C153.647 48.208 154.175 49.008 155.231 49.328L155.903 49.52V50H144.431ZM162.239 50L153.695 38L162.575 29.792C162.991 29.408 163.231 29.008 163.295 28.592C163.391 28.144 163.119 27.824 162.479 27.632L161.663 27.392V26.912H168.815V27.392L167.375 27.776C166.671 28 166.095 28.272 165.647 28.592C165.231 28.88 164.719 29.296 164.111 29.84L158.735 34.88L167.327 46.832C167.839 47.536 168.319 48.08 168.767 48.464C169.215 48.848 169.791 49.168 170.495 49.424L170.687 49.52V50H162.239ZM178.033 23.696C176.945 23.696 176.017 23.36 175.249 22.688C174.513 21.984 174.145 21.104 174.145 20.048C174.145 18.96 174.513 18.08 175.249 17.408C176.017 16.736 176.945 16.4 178.033 16.4C179.121 16.4 180.033 16.736 180.769 17.408C181.505 18.08 181.873 18.96 181.873 20.048C181.873 21.104 181.505 21.984 180.769 22.688C180.033 23.36 179.121 23.696 178.033 23.696ZM172.369 50V49.52L173.041 49.328C173.681 49.136 174.113 48.848 174.337 48.464C174.593 48.08 174.721 47.568 174.721 46.928V31.904C174.721 31.232 174.593 30.736 174.337 30.416C174.113 30.064 173.681 29.824 173.041 29.696L172.369 29.552V29.072L181.153 26.24L181.633 26.72L181.489 33.536V46.976C181.489 47.616 181.601 48.128 181.825 48.512C182.081 48.896 182.513 49.184 183.121 49.376L183.601 49.52V50H172.369ZM192.734 50.72C190.878 50.72 189.31 50.192 188.03 49.136C186.782 48.08 186.158 46.56 186.158 44.576C186.158 43.072 186.926 41.696 188.462 40.448C189.998 39.168 192.414 38.208 195.71 37.568C196.222 37.472 196.798 37.376 197.438 37.28C198.078 37.152 198.75 37.024 199.454 36.896V33.104C199.454 30.928 199.182 29.408 198.638 28.544C198.126 27.648 197.31 27.2 196.19 27.2C195.422 27.2 194.814 27.456 194.366 27.968C193.918 28.448 193.63 29.296 193.502 30.512L193.406 31.04C193.342 32.416 193.006 33.424 192.398 34.064C191.79 34.704 191.038 35.024 190.142 35.024C189.31 35.024 188.622 34.768 188.078 34.256C187.534 33.744 187.262 33.056 187.262 32.192C187.262 30.88 187.71 29.776 188.606 28.88C189.534 27.984 190.75 27.312 192.254 26.864C193.758 26.416 195.39 26.192 197.15 26.192C199.998 26.192 202.19 26.896 203.726 28.304C205.294 29.68 206.078 31.936 206.078 35.072V45.68C206.078 47.12 206.75 47.84 208.094 47.84H209.15L209.582 48.224C208.974 48.992 208.302 49.584 207.566 50C206.862 50.416 205.854 50.624 204.542 50.624C203.134 50.624 202.014 50.304 201.182 49.664C200.382 48.992 199.854 48.112 199.598 47.024C198.638 48.048 197.646 48.928 196.622 49.664C195.63 50.368 194.334 50.72 192.734 50.72ZM195.662 47.792C196.302 47.792 196.894 47.648 197.438 47.36C198.014 47.04 198.686 46.56 199.454 45.92V37.856C199.134 37.92 198.814 37.984 198.494 38.048C198.174 38.112 197.806 38.176 197.39 38.24C195.918 38.624 194.734 39.28 193.838 40.208C192.974 41.104 192.542 42.32 192.542 43.856C192.542 45.168 192.846 46.16 193.454 46.832C194.062 47.472 194.798 47.792 195.662 47.792Z" fill="#2F2F2F"/>
<path d="M28.5 16.5875V54.6588C28.0963 54.6588 27.6688 54.5875 27.3363 54.3975L27.2413 54.35C22.6813 51.8563 14.725 49.2438 9.57125 48.555L8.8825 48.46C6.6025 48.175 4.75 46.0375 4.75 43.7575V15.0675C4.75 12.2413 7.05375 10.1038 9.88 10.3413C14.8675 10.745 22.42 13.2625 26.6475 15.8988L27.2413 16.255C27.5975 16.4688 28.0487 16.5875 28.5 16.5875Z" fill="#BFA054"/>
<path d="M52.25 15.0913V43.7575C52.25 46.0375 50.3975 48.175 48.1175 48.46L47.3338 48.555C42.1563 49.2438 34.1763 51.88 29.6163 54.3975C29.3075 54.5875 28.9275 54.6588 28.5 54.6588V16.5875C28.9512 16.5875 29.4025 16.4688 29.7587 16.255L30.1625 15.9938C34.39 13.3338 41.9663 10.7925 46.9538 10.365H47.0963C49.9225 10.1275 52.25 12.2413 52.25 15.0913Z" fill="#2F2F2F"/>
<path d="M18.4062 25.945H13.0625C12.0888 25.945 11.2812 25.1375 11.2812 24.1638C11.2812 23.19 12.0888 22.3825 13.0625 22.3825H18.4062C19.38 22.3825 20.1875 23.19 20.1875 24.1638C20.1875 25.1375 19.38 25.945 18.4062 25.945Z" fill="#2F2F2F"/>
<path d="M20.1875 33.07H13.0625C12.0888 33.07 11.2812 32.2625 11.2812 31.2888C11.2812 30.315 12.0888 29.5075 13.0625 29.5075H20.1875C21.1613 29.5075 21.9688 30.315 21.9688 31.2888C21.9688 32.2625 21.1613 33.07 20.1875 33.07Z" fill="#2F2F2F"/>
</svg>
